<svg width="21" height="19" viewBox="0 0 21 19" fill="none" xmlns="http://www.w3.org/2000/svg">
<path d="M18.7857 15.025C19.0397 15.318 19.3087 15.552 19.5927 15.71C19.8757 15.875 20.2037 15.939 20.5677 15.904C20.6317 15.893 20.6717 15.954 20.6967 16.083C20.7167 16.213 20.7167 16.376 20.6967 16.576C20.6767 16.774 20.6317 16.993 20.5677 17.226C20.5037 17.46 20.4137 17.683 20.2987 17.897C20.1797 18.107 20.0397 18.286 19.8757 18.435C19.7117 18.583 19.5167 18.668 19.2987 18.683C18.9307 18.723 18.5977 18.622 18.2887 18.384C18.2037 18.32 18.1137 18.245 18.0287 18.161L18.0237 18.156L18.0197 18.15L18.0097 18.14L17.9987 18.135L17.9937 18.125H17.9887L17.9787 18.114V18.109L17.9687 18.105L17.9627 18.1L17.9577 18.094L17.9537 18.084L17.9237 18.054V18.049L17.9137 18.04H17.9077L17.9027 18.029L17.8987 18.024L17.8927 18.019L17.8827 18.009L17.8727 17.999L17.8677 17.993L17.8617 17.988L17.8577 17.979L17.8417 17.968V17.963L17.8117 17.933L17.8027 17.923V17.925L17.7947 17.919L17.7897 17.909V17.903L17.7797 17.894H17.7747L17.7697 17.884L17.7647 17.878L17.7587 17.873L17.7487 17.858L17.7397 17.848L17.7337 17.843L17.7287 17.837L17.7237 17.828L17.7177 17.822L17.7087 17.812L17.6987 17.802L17.6927 17.792L17.6877 17.787L17.6837 17.776L17.6727 17.767L17.6677 17.761L17.6617 17.751L17.6527 17.74L17.6427 17.725L17.6317 17.715L17.6267 17.706L17.6077 17.676H17.6027L17.5967 17.666L17.5877 17.655L17.5767 17.645V17.641L17.5657 17.631L17.5627 17.625L17.5567 17.621L17.5467 17.605L17.5407 17.595L17.5357 17.59L17.5317 17.58L17.5217 17.569L17.5167 17.557V17.551L17.5067 17.541L17.5017 17.536L17.4967 17.53L17.4917 17.517L17.4817 17.501L17.4767 17.497L17.4727 17.491L17.4617 17.477L17.4507 17.462L17.4417 17.451L17.4367 17.441V17.438L17.4257 17.422C17.1527 17.015 16.8887 16.542 16.6297 16.01C16.0927 14.911 15.5557 13.813 14.9087 12.768C14.5857 12.25 14.2267 11.798 13.8337 11.41C13.4397 11.022 12.9977 10.728 12.5057 10.52C12.4707 10.505 12.4317 10.49 12.3967 10.481C16.4377 10.485 16.7647 12.634 18.7857 15.025Z" fill="#F59F3A"/>
<path d="M7.65669 6.30999C7.62169 6.28499 7.57669 6.25499 7.53769 6.22099C5.51769 4.06299 1.24469 1.95499 1.72669 7.15099C1.73169 7.22999 1.65669 7.30999 1.49269 7.38399C1.32869 7.45799 1.13969 7.50799 0.924688 7.53799C0.716688 7.56299 0.516688 7.55799 0.338688 7.51799C0.159688 7.47799 0.0596879 7.37399 0.0346879 7.20999C-0.462312 3.36099 4.49669 2.92899 7.51669 5.30999C7.57069 5.35499 7.63069 5.39899 7.68569 5.44399C7.65669 5.71799 7.64569 6.00599 7.65669 6.30999Z" fill="#FED83C"/>
<path d="M13.8268 2.87398C13.8048 3.03798 13.7748 3.20698 13.7358 3.38598C13.6958 3.56498 13.6368 3.74898 13.5518 3.94298C13.4228 4.24098 13.2778 4.52898 13.1088 4.79798C12.9448 5.07098 12.7548 5.31498 12.5378 5.52798C12.2938 5.77198 12.0348 5.98498 11.7508 6.17398C11.4788 6.34798 11.1938 6.49198 10.8958 6.60598C10.9058 6.38798 10.9198 6.16798 10.9358 5.94998C11.3988 5.76098 11.8058 5.48798 12.1548 5.11898C12.3098 4.93998 12.4638 4.74098 12.6078 4.52298C12.7518 4.30398 12.8718 4.06598 12.9658 3.80698C13.0398 3.65298 13.0948 3.50398 13.1298 3.35898C13.1648 3.21998 13.1888 3.08098 13.2038 2.95098C13.2278 2.67298 13.1978 2.44398 13.1148 2.26498C12.9748 1.98198 12.7068 1.86298 12.3978 1.90198C12.2728 1.91698 12.1378 1.96198 11.9898 2.03098C11.9108 2.07598 11.8298 2.12498 11.7568 2.18998C11.6808 2.25698 11.6018 2.32698 11.5328 2.41198C10.4478 3.43098 10.4478 6.82698 10.3088 8.18498C10.2588 8.65698 10.1838 9.13398 10.0898 9.62698C13.7068 9.04998 18.0448 3.84398 17.4078 0.26898C17.3968 0.20998 17.4668 0.14998 17.6168 0.09998C17.7598 0.04998 17.9448 0.0159802 18.1598 0.00498023C18.3728 -0.0100198 18.6008 0.0099803 18.8458 0.0499803C19.0888 0.0939803 19.2988 0.17898 19.4778 0.30798C19.6518 0.43698 19.7768 0.61698 19.8468 0.84498C20.0888 1.61598 18.9058 3.67898 18.5078 4.33498C16.5118 7.61698 13.6718 9.60998 9.91078 10.471C9.41778 12.539 8.10478 14.766 6.33378 15.98C1.40378 19.345 0.264781 12.623 4.44778 11.45C4.80078 11.351 5.18378 11.346 5.59678 11.43C5.70678 11.455 5.76178 11.549 5.76178 11.708C5.76178 11.867 5.72178 12.026 5.64778 12.181C5.57178 12.34 5.47278 12.47 5.35778 12.569C5.23878 12.669 5.11978 12.669 4.99978 12.569C1.76078 9.89298 1.00978 21.055 5.55178 14.399C5.93478 13.837 6.23878 13.16 6.52678 12.409C7.06478 11.008 7.48178 9.51698 7.70178 8.02498C8.91478 -0.44702 14.0648 -0.14402 13.8268 2.87398Z" fill="#FED83C"/>
</svg>
